<svg id="Layer_1" data-name="Layer 1" xmlns="http://www.w3.org/2000/svg" viewBox="0 0 515.94 139.26"><path d="M438.57,53.13l36-36.85H412l1.2-15h98.16l.24,3.46-47.77,48c27.47,1.73,51.35,14.22,51.35,40.73,0,29.59-29.85,44.58-59.95,44.58H409.12l3.32-15.37h42.77c19.83,0,37-9,37-28.44,0-17.29-13.37-26.9-40.84-26.9-4.66,0-9.18.27-13,.63"/><path d="M.94,83.33l19.12-4h0q3.44,15.75,26.4,15.75,10.49,0,16.13-4t5.64-10a13.86,13.86,0,0,0-2.56-8q-2.56-3.69-11-5.78L33.82,62Q23.11,59.28,18,55.82a24.33,24.33,0,0,1-8.2-9.74A30.2,30.2,0,0,1,6.7,32.65q0-14.2,10.88-22.78T45.42,1.29a52.13,52.13,0,0,1,25.17,6q11.07,6,14.12,16.92L66,28.69h0q-4.32-12-20.17-12-9.19,0-14,3.72a11.49,11.49,0,0,0-4.84,9.47q0,9.09,15.2,12.73l18.57,4.5q16.87,4.13,22.64,12.15A29.77,29.77,0,0,1,89.11,77q0,15.6-12.12,24.57t-31.41,9q-16.23,0-28.44-6.6T.94,83.33Z"/><path d="M234.7,110.5H215V1.29H234.7Z"/><path d="M321.91,110.5H254.7V1.29h20.72V92.66h46.49Z"/><path d="M409.12,110.5H341.91V1.29h20.72V92.66h46.49Z"/><polygon points="128.79 30.66 128.79 1.29 109.11 1.29 109.11 56.98 128.79 30.66"/><polygon points="164.47 37.21 190.4 1.29 170.48 1.29 142.45 39.4 142.45 39.4 142.45 39.4 134.23 50.57 128.79 57.84 109.11 84.42 109.11 110.5 128.79 110.5 128.79 82.9 149.91 54.9 172.96 110.5 194.96 110.5 164.47 37.21"/><path d="M.94,138.1V122.73H447.48V138.1Z"/></svg>